<svg width="24" height="25" viewBox="0 0 24 25" fill="none" xmlns="http://www.w3.org/2000/svg">
<path d="M17 19.3895H13L8.54999 22.3494C7.88999 22.7894 7 22.3195 7 21.5195V19.3895C4 19.3895 2 17.3895 2 14.3895V8.3894C2 5.3894 4 3.3894 7 3.3894H17C20 3.3894 22 5.3894 22 8.3894V14.3895C22 17.3895 20 19.3895 17 19.3895Z" stroke="white" stroke-width="1.5" stroke-miterlimit="10" stroke-linecap="round" stroke-linejoin="round"/>
<path d="M12 12.3193V12.1094C12 11.4294 12.42 11.0694 12.84 10.7794C13.25 10.4994 13.66 10.1394 13.66 9.47937C13.66 8.55937 12.92 7.81934 12 7.81934C11.08 7.81934 10.34 8.55937 10.34 9.47937" stroke="white" stroke-width="1.5" stroke-linecap="round" stroke-linejoin="round"/>
<path d="M11.9955 14.7095H12.0045" stroke="white" stroke-width="1.5" stroke-linecap="round" stroke-linejoin="round"/>
</svg>
