<svg width="24" height="25" viewBox="0 0 24 25" fill="none" xmlns="http://www.w3.org/2000/svg">
<path d="M12 14.9595H13C14.1 14.9595 15 14.0595 15 12.9595V2.95947H6C4.5 2.95947 3.19001 3.78946 2.51001 5.00946" stroke="white" stroke-width="1.5" stroke-linecap="round" stroke-linejoin="round"/>
<path d="M2 17.9595C2 19.6195 3.34 20.9595 5 20.9595H6C6 19.8595 6.9 18.9595 8 18.9595C9.1 18.9595 10 19.8595 10 20.9595H14C14 19.8595 14.9 18.9595 16 18.9595C17.1 18.9595 18 19.8595 18 20.9595H19C20.66 20.9595 22 19.6195 22 17.9595V14.9595H19C18.45 14.9595 18 14.5095 18 13.9595V10.9595C18 10.4095 18.45 9.95947 19 9.95947H20.29L18.58 6.96948C18.22 6.34948 17.56 5.95947 16.84 5.95947H15V12.9595C15 14.0595 14.1 14.9595 13 14.9595H12" stroke="white" stroke-width="1.5" stroke-linecap="round" stroke-linejoin="round"/>
<path d="M8 22.9595C9.10457 22.9595 10 22.064 10 20.9595C10 19.8549 9.10457 18.9595 8 18.9595C6.89543 18.9595 6 19.8549 6 20.9595C6 22.064 6.89543 22.9595 8 22.9595Z" stroke="white" stroke-width="1.5" stroke-linecap="round" stroke-linejoin="round"/>
<path d="M16 22.9595C17.1046 22.9595 18 22.064 18 20.9595C18 19.8549 17.1046 18.9595 16 18.9595C14.8954 18.9595 14 19.8549 14 20.9595C14 22.064 14.8954 22.9595 16 22.9595Z" stroke="white" stroke-width="1.5" stroke-linecap="round" stroke-linejoin="round"/>
<path d="M22 12.9595V14.9595H19C18.45 14.9595 18 14.5095 18 13.9595V10.9595C18 10.4095 18.45 9.95947 19 9.95947H20.29L22 12.9595Z" stroke="white" stroke-width="1.5" stroke-linecap="round" stroke-linejoin="round"/>
<path d="M2 8.95947H8" stroke="white" stroke-width="1.5" stroke-linecap="round" stroke-linejoin="round"/>
<path d="M2 11.9595H6" stroke="white" stroke-width="1.5" stroke-linecap="round" stroke-linejoin="round"/>
<path d="M2 14.9595H4" stroke="white" stroke-width="1.5" stroke-linecap="round" stroke-linejoin="round"/>
</svg>
