<svg width="20" height="21" viewBox="0 0 20 21" fill="none" xmlns="http://www.w3.org/2000/svg">
<path d="M1.66669 2.15656H3.11669C4.01669 2.15656 4.72502 2.93156 4.65002 3.82322L3.95835 12.1232C3.84169 13.4815 4.91668 14.6482 6.28335 14.6482H15.1584C16.3584 14.6482 17.4084 13.6649 17.5 12.4732L17.95 6.22323C18.05 4.83989 17 3.71488 15.6084 3.71488H4.85003" stroke="white" stroke-width="1.5" stroke-miterlimit="10" stroke-linecap="round" stroke-linejoin="round"/>
<path d="M13.5417 18.8232C14.117 18.8232 14.5833 18.3568 14.5833 17.7815C14.5833 17.2062 14.117 16.7399 13.5417 16.7399C12.9664 16.7399 12.5 17.2062 12.5 17.7815C12.5 18.3568 12.9664 18.8232 13.5417 18.8232Z" stroke="white" stroke-width="1.5" stroke-miterlimit="10" stroke-linecap="round" stroke-linejoin="round"/>
<path d="M6.87498 18.8232C7.45028 18.8232 7.91665 18.3568 7.91665 17.7815C7.91665 17.2062 7.45028 16.7399 6.87498 16.7399C6.29968 16.7399 5.83331 17.2062 5.83331 17.7815C5.83331 18.3568 6.29968 18.8232 6.87498 18.8232Z" stroke="white" stroke-width="1.5" stroke-miterlimit="10" stroke-linecap="round" stroke-linejoin="round"/>
<path d="M7.5 7.15656H17.5" stroke="white" stroke-width="1.5" stroke-miterlimit="10" stroke-linecap="round" stroke-linejoin="round"/>
</svg>
